<svg xmlns="http://www.w3.org/2000/svg" xml:space="preserve" viewBox="0 0 500 500">
  <linearGradient id="a" x1="249.02" x2="249.02" y1="214.1664" y2="420.1673" gradientTransform="matrix(1 0 0 -1 0 499.89)" gradientUnits="userSpaceOnUse">
    <stop offset="0" stop-color="#fff" stop-opacity="0"/>
    <stop offset=".6292" stop-color="#fff"/>
  </linearGradient>
  <path fill="url(#a)" d="M149.9 309.5c0-54.7 44.4-99.1 99.1-99.1s99.1 44.4 99.1 99.1"/>
  <path fill="#fff" d="M349.5 309.5c-.5 0-.9-.4-.9-.9-.5-53.8-44.3-97.3-98.2-97.3s-97.7 43.6-98.2 97.3c0 .5-.4.9-.9.9s-.9-.4-.9-.9c.5-54.7 45.1-99.1 100-99.1s99.5 44.4 100 99.1c0 .5-.4.9-.9.9z" opacity=".55"/>
  <linearGradient id="b" x1="416.4482" x2="152.9854" y1="249.895" y2="249.895" gradientTransform="matrix(1 0 0 -1 0 499.89)" gradientUnits="userSpaceOnUse">
    <stop offset=".3232" stop-color="#fff" stop-opacity="0"/>
    <stop offset=".8699" stop-color="#fff"/>
  </linearGradient>
  <path fill="url(#b)" d="M374.8 318.9c-3.8 0-6.9-3.1-7.1-7-3.6-64.5-54.9-115.9-117.5-115.9s-113.9 51.4-117.4 115.9c-.2 4-3.4 7-7.2 7-4.1 0-7.4-3.6-7.2-7.9 3.9-72.4 61.5-130 131.7-130S378 238.7 381.9 311c.3 4.3-3 7.9-7.1 7.9z"/>
  <path fill="#fff" d="M290.4 273.2c-.9-1.1-2.6-1.3-3.8-.6-14 8.9-30.8 19.6-36.5 23.7-2.8-.1-5.7.8-8 2.8-4.9 4.2-5.5 11.6-1.3 16.6 4.2 4.9 11.6 5.5 16.6 1.3 2.3-2 3.6-4.7 4-7.4 4.8-4.9 18-20 28.9-32.4 1-1.2 1-2.9.1-4z"/>
</svg>